<svg xmlns="http://www.w3.org/2000/svg" viewBox="0 0 1200 630">
  <defs>
    <radialGradient id="g" cx="74%" cy="18%" r="72%">
      <stop offset="0" stop-color="#a8ff6a" stop-opacity=".42"/>
      <stop offset=".46" stop-color="#82f6be" stop-opacity=".12"/>
      <stop offset="1" stop-color="#07100d"/>
    </radialGradient>
    <linearGradient id="l" x1="0" x2="1">
      <stop stop-color="#e4ff4f"/>
      <stop offset="1" stop-color="#82f6be"/>
    </linearGradient>
  </defs>
  <rect width="1200" height="630" fill="#07100d"/>
  <rect width="1200" height="630" fill="url(#g)"/>
  <g opacity=".16" stroke="#a8ff6a">
    <path d="M0 90h1200M0 180h1200M0 270h1200M0 360h1200M0 450h1200M0 540h1200"/>
    <path d="M120 0v630M240 0v630M360 0v630M480 0v630M600 0v630M720 0v630M840 0v630M960 0v630M1080 0v630"/>
  </g>
  <circle cx="910" cy="315" r="128" fill="none" stroke="#e4ff4f" stroke-width="3" opacity=".7"/>
  <circle cx="910" cy="315" r="72" fill="url(#l)" opacity=".85"/>
  <text x="90" y="180" fill="#e4ff4f" font-family="Menlo, monospace" font-size="30" letter-spacing="8">UNOFFICIAL MCP SERVER</text>
  <text x="86" y="330" fill="#eff8ed" font-family="Arial Narrow, Impact, sans-serif" font-size="112" font-weight="800">WHOOP DATA</text>
  <text x="86" y="430" fill="#eff8ed" font-family="Arial Narrow, Impact, sans-serif" font-size="112" font-weight="800">FOR AGENTS</text>
  <text x="92" y="510" fill="#9dafaa" font-family="Georgia, serif" font-size="34">local-first OAuth · privacy modes · daily and weekly summaries</text>
</svg>
